<svg id="Слой_1" data-name="Слой 1" xmlns="http://www.w3.org/2000/svg" viewBox="0 0 483.45 305.79"><defs><style>.cls-1{fill:#fff;}</style></defs><path class="cls-1" d="M542.46,467.47A165.22,165.22,0,0,0,448.24,360q-3.84-1.63-7.79-3.09v3.43h7.65v17.19h-3.67l6.3,10.65v14.33h12.62V425h22.2a13.21,13.21,0,0,1,13.2,13.2V449.4h25.77v18.07Z" transform="translate(-141.86 -265.44)"/><path class="cls-1" d="M394.19,356.13v46.33h14.29V388.13l6.29-10.66h-3.65V360.29h7.64v-9.74A165.62,165.62,0,0,0,389,346.88a10.84,10.84,0,0,1,5.19,9.25Z" transform="translate(-141.86 -265.44)"/><path class="cls-1" d="M224.73,467.47h18V449.4h20.16V438.21A13.52,13.52,0,0,1,275,424.79a7.43,7.43,0,0,1,2.35-1.46,9.24,9.24,0,0,1,8.58-5.88h7.26V399.8h8V373.67h-7.8A165.14,165.14,0,0,0,224.73,467.47Z" transform="translate(-141.86 -265.44)"/><path class="cls-1" d="M411.14,337.73V328a188.12,188.12,0,0,0-27.54-2c-1.64,0-3.26,0-4.88.06v3.9H377v5.75c2.21-.08,4.42-.12,6.65-.12A176.41,176.41,0,0,1,411.14,337.73Z" transform="translate(-141.86 -265.44)"/><path class="cls-1" d="M284.2,426.62a1.64,1.64,0,0,1,1.63-1.63h21.69v6.6h-1.39v2.28h1.39v8.58h-1.39v2.28h1.39v8.57h-1.39v1.07h-7.27V438.21a8.43,8.43,0,0,0-1.25-4.45,8.52,8.52,0,0,0-3.41-3.11,8.28,8.28,0,0,0-1.52-.6,8.55,8.55,0,0,0-2.26-.3h-1.29a2.26,2.26,0,0,0-2.23-1.85h-2.69Zm47.42-16.79v-8.58H333V399h-1.39V390.4H333v-2.28h-1.39v-8.58H333v-2.28h-1.39v-8.58H333v-2.34h-1.39v-8.58H333v-2.28h-1.39v-8.57H333v-2.28h-1.39V336H333V333.7h-1.39v-8.58H333v-2.28h-1.39v-8.62H333v-2.28h-1.48a12.08,12.08,0,0,0-3.43-7,11.87,11.87,0,0,0-2-1.57H333v-2.28H321.54v-.84a3.5,3.5,0,0,1,3.49-3.49h9.63a2.32,2.32,0,0,1,1.64.68,2.28,2.28,0,0,1,.68,1.64V454.43h-3.93v-1.07h-1.39v-8.57h1.39v-2.27h-1.39v-8.58h1.39v-2.28h-1.39v-8.57h1.39v-2.28h-1.39v-8.58h1.39V410Zm-25.09,0v-1.57h1v1.57Zm-2-1.57h1.14v1.57h-1.14Zm-2,0h1.14v1.57h-1.14Zm-1.86,0h1v1.57h-1Zm0-2.53h1v1.65h-1Zm3,1.65h-1.14v-1.65h1.14Zm2,0h-1.14v-1.65h1.14Zm1.85,0h-1v-1.65h1Zm-1-41.05v-1.58h1v1.59Zm-2,0v-1.58h1.14v1.59h-1.14Zm-3.85,0v-1.58h1v1.59Zm0-4.12h1v1.65h-1Zm3,4.12h-1.14v-1.58h1.14Zm0-2.47h-1.14v-1.65h1.14Zm2,0h-1.14v-1.65h1.14Zm1.85,0h-1v-1.65h1Zm-1-41.05v-1.58h1v1.58Zm-2-1.58h1.14v1.58h-1.14Zm-2,0h1.14v1.58h-1.14Zm-1.86,0h1v1.58h-1Zm0-2.52h1v1.65h-1Zm3,1.65h-1.14v-1.65h1.14Zm2,0h-1.14v-1.65h1.14Zm1.85,0h-1v-1.65h1Zm64.34,99.75V403.23h1.76v-2.7h-1.76V385.61h5.63v42.48h-5.65v-5.28h1.77v-2.7Zm29,3.82v4.16h-11.8v-4.16Zm62.37,11.12h22.2a3.12,3.12,0,0,1,3.12,3.11v16.29H475V442.56H458.26v-7.51ZM377.56,449.4v5.05h-5.65V442.39h1.76v-2.7h-1.76V433h5.63Zm23.39,0v5.05h-11.8V433h11.78Zm22.36-78.07v-1.51h.56v1.51Zm-3.29,0v-1.51h2.79v1.51Zm-3.3,0v-1.51h2.8v1.51Zm2.8-5.3v1.42h-2.8V366Zm3.29,0v1.42H420V366Zm1.06,0v1.42h-.56V366ZM436,366v1.42h-.56V366Zm3.29,0v1.42h-2.79V366Zm3.3,0v1.42h-2.79V366Zm-2.79,5.3v-1.51h2.79v1.51Zm-3.3,0v-1.51h2.79v1.51Zm-1.06,0v-1.51H436v1.51Zm.56-2h-.56V367.9H436Zm3.29,0h-2.79V367.9h2.79Zm3.3,0h-2.79V367.9h2.79Zm-19.28-1.41h.56v1.41h-.56Zm-3.29,0h2.79v1.41H420Zm-3.3,0h2.8v1.41h-2.8Zm6.59-31.35V335h.56v1.51Zm-3.29,0V335h2.79v1.51Zm-3.3,0V335h2.8v1.51Zm2.8-5.3v1.42h-2.8v-1.42Zm3.29,0v1.42H420v-1.42Zm1.06,0v1.42h-.56v-1.42Zm12.11,0v1.42h-.56v-1.42Zm3.29,0v1.42h-2.79v-1.42Zm3.3,0v1.42h-2.79v-1.42Zm0,5.3h-2.79V335h2.79Zm-6.09,0V335h2.79v1.51Zm-1.06,0V335H436v1.51Zm.56-3.09v1.1h-.56v-1.42H436Zm3.29,1v.09h-2.79v-1.42h2.79Zm3.3.09h-2.79v-1.42h2.79Zm-19.28-1.42h.56v1.42h-.56Zm-3.29,0h2.79v1.42H420Zm-3.3,0h2.8v1.42h-2.8ZM200.31,481.91H583.73v-9.4H565.12A186,186,0,0,0,455.86,340.58q-3.86-1.63-7.77-3.08v5.22h-7.65V345A176.75,176.75,0,0,1,555.27,472.51H519.45V454.45H493.69V438.16a8.18,8.18,0,0,0-8.17-8.16H458.28V407.51H445.67v-18l-10.09-17.08H443v-7.1h-.51v.22h-2.79v-.22h-.5v.22h-2.8v-.22h-.5v.22h-.56V337.67H443v-7.1h-.5v.22h-2.79v-.22h-.51v.22h-2.79v-.22h-.51v.22h-.55V265.44H423.8v65.35h-.55v-.22h-.51v.22H420v-.22h-.5v.22h-2.79v-.22h-.51v7.1h7.65v27.88h-.56v-.22h-.5v.22H420v-.22h-.5v.22h-2.8v-.22h-.5v7.1h7.45l-10.09,17.08v18H400.9v12.61H389.15v-64a5.81,5.81,0,0,0-11.61,0v23.71h-5.65V364.06h1.77v-2.7h-1.77V344.48h1.77v-2.71h-1.77V324.9h1.77v-2.71h-1.77v-2.07a10,10,0,0,0-20,0v2.07h-1.76v2.71h1.76v16.87h-1.76v2.71h1.76v16.88h-1.76v2.7h1.76v16.88h-1.76v2.71h1.76v16.88h-1.76v2.7h1.76v16.88h-1.76v2.7h1.76v16.88h-1.76v2.7h1.76v12.06H340.78V299.06a6.13,6.13,0,0,0-6.12-6.14H325a7.31,7.31,0,0,0-7.29,7.3v.84H306.17v2.28H313a12,12,0,0,0-5.38,8.58h-1.48v2.28h1.39v3.6h-9.39v7.28h9.39v8.58h-1.39v2.28h1.39v8.6h-1.39v2.28h1.39v8.58h-1.39v2.36h1.39v3.61h-9.39v7.28h9.39v8.57h-1.39v2.28h1.39v8.58h-1.39v2.28h1.39v8.58h-1.39v2.28h1.39v3.6h-9.39v7.28h9.39v8.58h-1.39v1.76H285.86a4,4,0,0,0-1.7.37,4.19,4.19,0,0,0-2,1.84,4.12,4.12,0,0,0-.5,1.94v1.3h-1.82a2.26,2.26,0,0,0-2.22,1.87h-1.3a8.31,8.31,0,0,0-3.23.64,8.39,8.39,0,0,0-4.58,4.58,8.32,8.32,0,0,0-.65,3.23v16.24H247.73v18.06H211.91a176.68,176.68,0,0,1,81.22-111.87V356.3h7.66l.34-.19V345.26a185.72,185.72,0,0,0-99.06,127.25H183.46v9.4Z" transform="translate(-141.86 -265.44)"/><path class="cls-1" d="M169.18,506.09l-8,.32q0,7.6,0,15.19l13.81-.16q6.5,4.57,13.17,8.89l-.15,21q-6.37,6.1-12.55,12.44-10.6,2.21-21.11,4.54-6.28-4.11-12.42-8.49V545.94q9.58-1.56,19.17-3c0,3.94,0,5.91,0,9.85,3.19-.57,4.79-.85,8-1.4q0-7.59.07-15.2l-13.89.77c-4.51-3-8.91-6.24-13.3-9.44v-23.6q6.34-5.85,12.81-11.53h20.18q6.43,5.1,13,10.09c0,4.85,0,7.28-.09,12.13q-9.3.58-18.59,1.21C169.18,511.94,169.18,510,169.18,506.09Z" transform="translate(-141.86 -265.44)"/><path class="cls-1" d="M223.52,543.3q.24-25.45.5-50.89h19.34l-.56,51.18c-4.24,3.41-8.4,6.92-12.55,10.45q-10.81,1.65-21.61,3.47-6.34-3.64-12.57-7.49l.46-57.61h19.33q-.24,26-.5,52C218.62,543.93,220.26,543.71,223.52,543.3Z" transform="translate(-141.86 -265.44)"/><path class="cls-1" d="M279.37,525.09l-7.7.47c-.05,5.05-.08,7.54-.14,12.56l7.71-.66Zm.24-22.24-7.7.15c-.05,4.79-.07,7.18-.13,12l7.7-.33Zm8.57,16.21c4.23,1.94,6.35,2.9,10.6,4.79l-.14,14.5q-6.47,4.36-12.83,8.9-16.9,1.65-33.75,3.76.33-29.31.65-58.6h33.67c4.45,2.75,6.67,4.1,11.1,6.75q-.06,7.13-.14,14.26C293.68,515.64,291.85,516.76,288.18,519.06Z" transform="translate(-141.86 -265.44)"/><path class="cls-1" d="M327.68,531.7l1.4-.06q2.54-19.62,5.05-39.23h19.11q-5,25.5-10.06,51-14.67.62-29.3,1.56-5.34-26.26-10.5-52.56h19.11Q325.07,512.06,327.68,531.7Z" transform="translate(-141.86 -265.44)"/><path class="cls-1" d="M357.32,492.41h35.54v9.46H376.64v9.44h13.43v9.46H376.62v12.42h16.75v9.46q-18.14-.12-36.25.29Z" transform="translate(-141.86 -265.44)"/><path class="cls-1" d="M427.17,502l-7.93-.06.05,11.34,7.94.12c0-4.56,0-6.84-.06-11.38Zm.12,21-8-.18q.06,10.18.11,20.37-9.74-.35-19.48-.5-.06-25.17-.11-50.35h33q6.53,3.78,13,7.63l.1,13.52c-3.81,2-5.72,3-9.54,4.9,3.85,2,5.77,3.08,9.62,5.18q.08,10.44.16,20.88-9.37-.57-18.75-1Z" transform="translate(-141.86 -265.44)"/><path class="cls-1" d="M481.64,502.74l-8.05-.14c0,4.42.06,6.63.11,11.06,5.55.5,8.33.74,13.89,1.28q6.75,4.3,13.39,8.81.09,8.67.19,17.35-6.23,3.48-12.52,6.86-10.71-1.05-21.41-2-6.3-4.35-12.71-8.57c0-3.71,0-5.55-.08-9.26q9.71.45,19.41,1c0,2.86,0,4.3.07,7.17,3.23.23,4.83.35,8.07.6-.05-4.59-.07-6.89-.12-11.48-5.61-.63-8.42-.93-14-1.51q-6.69-4.14-13.5-8.12l-.13-15.78q6.4-3.79,12.75-7.7h20.18q6.63,4.06,13.12,8.32c0,4,.06,6,.11,10q-9.33-.33-18.67-.63Z" transform="translate(-141.86 -265.44)"/><path class="cls-1" d="M536.81,542.44q-.27-25-.5-50h19.32q.25,27.68.5,55.34-6.11,3.76-12.34,7.34-10.81-1.67-21.65-3.16c-4.24-3.38-8.48-6.74-12.8-10q-.29-24.75-.55-49.51h19.34q.25,24.52.5,49.06C531.92,541.85,533.55,542,536.81,542.44Z" transform="translate(-141.86 -265.44)"/><path class="cls-1" d="M596.6,527.35q3-17.47,5.86-34.94h22.85v78.82q-8.67-2.09-17.38-4l-.13-47.42-.93-.08q-3.81,22.81-7.7,45.62L592,563.79q-4-22.95-8.25-45.87l-.93-.06q.13,22.08.28,44.14-8.67-1.69-17.37-3.26-.29-33.16-.56-66.35h22.55q3.59,17.36,7,34.75Z" transform="translate(-141.86 -265.44)"/></svg>